# xmcd
#
# Track frame offsets: 
#        150
#        20668
#        41926
#        62774
#        83097
#        107208
#        125005
#        142971
#        159797
#        178005
#        196112
#        221069
#        242824
#        275036
#        302735
#        320608
#        352292
#
# Disc length: 4760 seconds
#
# Revision: 1
# Processed by: cddbd v1.5.2PL0 Copyright (c) Steve Scherf et al.
# Submitted via: ExactAudioCopy v0.99pb5
#
DISCID=06129611
DTITLE=Chris Rea - Still So Far To Go...The Best Of
DYEAR=2009
DGENRE=Rock
TTITLE0=The Road To Hell (Part 2)
TTITLE1=Auberge
TTITLE2=Winter Song
TTITLE3=Nothing To Fear
TTITLE4=God's Great Banana Skin
TTITLE5=Julia
TTITLE6=You Can Go Your Own Way
TTITLE7=When The Greyn Skies Turn To Blue
TTITLE8=The Blue Café
TTITLE9=New Times Square
TTITLE10=Stony Road
TTITLE11=Easy Rider
TTITLE12=Blue Street
TTITLE13=Somewhere Between Highway 61 and 49
TTITLE14=The Shadow Of A Fool
TTITLE15=Valentino
TTITLE16=Data
EXTD=powered by eisenkarl
EXTT0=
EXTT1=
EXTT2=
EXTT3=
EXTT4=
EXTT5=
EXTT6=
EXTT7=
EXTT8=
EXTT9=
EXTT10=
EXTT11=
EXTT12=
EXTT13=
EXTT14=
EXTT15=
EXTT16=
PLAYORDER=
